<?xml version="1.0" standalone="no"?>
<!DOCTYPE svg PUBLIC "-//W3C//DTD SVG 20010904//EN"
 "http://www.w3.org/TR/2001/REC-SVG-20010904/DTD/svg10.dtd">
<svg version="1.0" xmlns="http://www.w3.org/2000/svg"
 width="500.000000pt" height="500.000000pt" viewBox="0 0 500.000000 500.000000"
 preserveAspectRatio="xMidYMid meet">
<metadata>
Created by potrace 1.16, written by Peter Selinger 2001-2019
</metadata>
<g transform="translate(0.000000,500.000000) scale(0.100000,-0.100000)"
fill="#000000" stroke="none">
<path d="M2541 4230 c-18 -12 -280 -235 -582 -496 l-548 -474 -534 0 -534 0
-33 -22 c-18 -13 -43 -36 -54 -51 -21 -28 -21 -36 -24 -718 -3 -769 -6 -732
66 -787 l35 -27 536 -5 536 -5 564 -488 c310 -269 574 -493 588 -498 13 -5 48
-9 77 -9 63 0 109 26 140 80 21 35 21 38 21 1720 0 1580 -1 1687 -17 1717 -28
51 -74 77 -143 81 -48 2 -67 -1 -94 -18z"/>
<path d="M4030 4218 c-25 -13 -55 -39 -68 -58 -20 -30 -23 -45 -20 -101 3 -63
6 -71 60 -140 217 -286 373 -621 447 -960 69 -322 70 -708 0 -1023 -75 -342
-229 -676 -443 -956 -64 -85 -70 -100 -64 -174 8 -95 67 -146 170 -146 73 0
102 21 185 131 107 142 176 257 269 444 396 801 372 1769 -62 2547 -71 127
-197 315 -259 385 -67 76 -134 92 -215 51z"/>
<path d="M3579 3777 c-19 -12 -44 -42 -57 -67 -37 -72 -27 -121 52 -239 201
-300 301 -607 313 -966 13 -390 -86 -736 -309 -1078 -84 -128 -93 -169 -58
-241 49 -102 186 -128 269 -53 62 57 203 299 277 473 113 269 164 532 164 839
0 261 -29 449 -106 685 -82 250 -281 607 -364 651 -50 27 -137 26 -181 -4z"/>
<path d="M3122 3314 c-86 -44 -117 -157 -67 -244 63 -110 126 -253 151 -345
24 -89 27 -118 28 -270 1 -144 -3 -183 -21 -257 -31 -120 -74 -229 -130 -323
-57 -98 -67 -159 -34 -222 62 -122 228 -121 306 1 85 133 165 331 201 496 15
68 19 127 19 300 0 199 -2 224 -27 328 -49 205 -171 462 -246 520 -44 33 -131
41 -180 16z"/>
</g>
</svg>
