<?xml version="1.0" standalone="no"?>
<!DOCTYPE svg PUBLIC "-//W3C//DTD SVG 20010904//EN"
 "http://www.w3.org/TR/2001/REC-SVG-20010904/DTD/svg10.dtd">
<svg version="1.0" xmlns="http://www.w3.org/2000/svg"
 width="500.000000pt" height="500.000000pt" viewBox="0 0 500.000000 500.000000"
 preserveAspectRatio="xMidYMid meet">
<metadata>
Created by potrace 1.16, written by Peter Selinger 2001-2019
</metadata>
<g transform="translate(0.000000,500.000000) scale(0.100000,-0.100000)"
fill="#000000" stroke="none">
<path d="M2529 4222 c-20 -10 -282 -235 -582 -500 l-546 -482 -519 0 -519 0
-44 -23 c-27 -15 -52 -38 -66 -63 l-23 -39 0 -678 c0 -756 -3 -721 68 -775
l35 -27 533 -3 532 -3 534 -470 c293 -259 548 -483 567 -498 29 -22 44 -26
101 -26 57 0 72 4 102 27 74 56 68 -95 68 1775 l0 1678 -23 39 c-42 75 -144
106 -218 68z"/>
<path d="M3190 3418 c-62 -32 -90 -77 -90 -144 0 -29 4 -63 9 -76 5 -13 141
-183 304 -377 l295 -354 -299 -358 c-164 -197 -301 -370 -305 -384 -4 -14 -4
-50 -2 -79 5 -63 33 -107 82 -130 47 -22 133 -21 171 3 17 10 152 165 300 344
149 179 273 326 277 326 3 1 128 -145 278 -324 149 -179 285 -335 303 -345 46
-29 134 -27 177 3 52 34 73 70 78 130 3 38 -1 63 -13 87 -13 24 -410 510 -582
711 -12 14 21 57 278 365 160 192 297 363 305 381 21 48 17 112 -9 157 -26 47
-93 86 -147 86 -76 0 -105 -27 -389 -368 -148 -178 -273 -324 -277 -324 -5 0
-130 146 -279 323 -148 178 -281 331 -295 341 -42 31 -117 33 -170 6z"/>
</g>
</svg>
