<svg width="24" height="24" viewBox="0 0 24 24" fill="none" xmlns="http://www.w3.org/2000/svg">
<path d="M18 20.79H6C5.50416 20.7901 5.01323 20.6918 4.55564 20.5008C4.09804 20.3099 3.68285 20.0301 3.33411 19.6776C2.98536 19.3251 2.70997 18.907 2.52389 18.4474C2.3378 17.9878 2.24471 17.4959 2.25 17V10C2.26312 9.01324 2.66368 8.07117 3.36524 7.37709C4.0668 6.68301 5.01312 6.29258 6 6.29004H18C18.9869 6.29258 19.9332 6.68301 20.6348 7.37709C21.3363 8.07117 21.7369 9.01324 21.75 10V17C21.7553 17.4959 21.6622 17.9878 21.4761 18.4474C21.29 18.907 21.0146 19.3251 20.6659 19.6776C20.3171 20.0301 19.902 20.3099 19.4444 20.5008C18.9868 20.6918 18.4958 20.7901 18 20.79ZM6 7.79004C5.41013 7.78995 4.84381 8.0215 4.42299 8.43484C4.00216 8.84819 3.76049 9.41026 3.75 10V17C3.74469 17.2989 3.79896 17.5957 3.90965 17.8734C4.02034 18.151 4.18524 18.4038 4.3947 18.617C4.60416 18.8301 4.854 18.9995 5.12962 19.115C5.40524 19.2306 5.70113 19.2901 6 19.29H18C18.2989 19.2901 18.5948 19.2306 18.8704 19.115C19.146 18.9995 19.3958 18.8301 19.6053 18.617C19.8148 18.4038 19.9797 18.151 20.0903 17.8734C20.201 17.5957 20.2553 17.2989 20.25 17V10C20.2395 9.41026 19.9978 8.84819 19.577 8.43484C19.1562 8.0215 18.5899 7.78995 18 7.79004H6Z" fill="black"/>
<path d="M21 17.29H15.45C14.6013 17.29 13.7874 16.9529 13.1873 16.3528C12.5871 15.7527 12.25 14.9387 12.25 14.09V13C12.2526 12.1522 12.5906 11.3398 13.1902 10.7402C13.7897 10.1407 14.6021 9.80269 15.45 9.80005H21C21.1989 9.80005 21.3897 9.87907 21.5303 10.0197C21.671 10.1604 21.75 10.3511 21.75 10.55C21.75 10.749 21.671 10.9397 21.5303 11.0804C21.3897 11.221 21.1989 11.3 21 11.3H15.45C14.9991 11.3 14.5667 11.4792 14.2479 11.798C13.9291 12.1168 13.75 12.5492 13.75 13V14.1C13.75 14.5509 13.9291 14.9833 14.2479 15.3021C14.5667 15.6209 14.9991 15.8 15.45 15.8H21C21.1989 15.8 21.3897 15.8791 21.5303 16.0197C21.671 16.1604 21.75 16.3511 21.75 16.55C21.75 16.749 21.671 16.9397 21.5303 17.0804C21.3897 17.221 21.1989 17.3 21 17.3V17.29Z" fill="black"/>
<path d="M17 14.29C16.8012 14.2898 16.6105 14.2107 16.47 14.07C16.3994 14.0011 16.3436 13.9186 16.3057 13.8275C16.2679 13.7364 16.249 13.6386 16.25 13.54C16.2496 13.4434 16.2701 13.3479 16.31 13.26C16.3477 13.1676 16.4019 13.0829 16.47 13.01C16.6106 12.8695 16.8013 12.7906 17 12.7906C17.1988 12.7906 17.3894 12.8695 17.53 13.01C17.5981 13.0829 17.6523 13.1676 17.69 13.26C17.7299 13.3479 17.7504 13.4434 17.75 13.54C17.751 13.6386 17.7321 13.7364 17.6943 13.8275C17.6565 13.9186 17.6006 14.0011 17.53 14.07C17.3895 14.2107 17.1988 14.2898 17 14.29Z" fill="black"/>
<path d="M6.33 7.79002C6.1533 7.78733 5.98322 7.72233 5.84977 7.60649C5.71631 7.49064 5.62805 7.33139 5.60055 7.15682C5.57305 6.98225 5.60807 6.80357 5.69945 6.65231C5.79083 6.50104 5.93268 6.3869 6.1 6.33002L15.34 3.33002C15.6099 3.24179 15.8966 3.21723 16.1776 3.25827C16.4586 3.29931 16.7263 3.40483 16.9597 3.56657C17.1931 3.72831 17.3859 3.94189 17.523 4.19057C17.6601 4.43926 17.7378 4.7163 17.75 5.00002V7.00002C17.75 7.19893 17.671 7.3897 17.5303 7.53035C17.3897 7.671 17.1989 7.75002 17 7.75002C16.8011 7.75002 16.6103 7.671 16.4697 7.53035C16.329 7.3897 16.25 7.19893 16.25 7.00002V5.00002C16.25 4.94709 16.2373 4.89492 16.213 4.84793C16.1886 4.80094 16.1533 4.7605 16.11 4.73002C16.0633 4.70707 16.012 4.69514 15.96 4.69514C15.908 4.69514 15.8567 4.70707 15.81 4.73002L6.57 7.73002C6.4928 7.75988 6.41218 7.78003 6.33 7.79002Z" fill="black"/>
</svg>
