<svg width="24" height="24" fill="none" xmlns="http://www.w3.org/2000/svg"><path d="M11.56 22.12a10.56 10.56 0 1 1 10.56-10.56 10.58 10.58 0 0 1-10.56 10.56zm0-19.62a9.06 9.06 0 1 0 0 18.12 9.06 9.06 0 0 0 0-18.12z" fill="#000"/><path d="M7.67 15.76a3 3 0 1 1 0-6 3 3 0 0 1 0 6zm0-4.5a1.5 1.5 0 1 0 1.5 1.5 1.51 1.51 0 0 0-1.5-1.5zM15.45 15.76a3 3 0 1 1 0-5.999 3 3 0 0 1 0 5.999zm0-4.5a1.5 1.5 0 1 0 0 3 1.5 1.5 0 0 0 0-3zM1.98 10.17a.75.75 0 0 1-.15-1.49c.11-.02 10.83-2.34 13.73-6.25a.75.75 0 0 1 1-.16.76.76 0 0 1 .16 1c-3.16 4.42-14.16 6.78-14.58 6.88l-.16.02z" fill="#000"/><path d="M18.56 8.56a20.54 20.54 0 0 1-7.34-1.61.76.76 0 0 1-.198-1.24.75.75 0 0 1 .828-.13s4.71 1.98 8.55 1.27a.74.74 0 0 1 .87.6.75.75 0 0 1-.6.88 11.1 11.1 0 0 1-2.11.23zM13.2 13.56H9.92a.75.75 0 1 1 0-1.5h3.28a.75.75 0 1 1 0 1.5zM5.42 13.56H1.83a.75.75 0 1 1 0-1.5h3.59a.75.75 0 1 1 0 1.5zM21.3 13.56h-3.6a.75.75 0 1 1 0-1.5h3.6a.75.75 0 1 1 0 1.5z" fill="#000"/></svg>